<svg xmlns="http://www.w3.org/2000/svg" width="256" height="256" viewBox="0 0 100 100"><rect width="100" height="100" rx="20" fill="#141414"></rect><path fill="#fff" d="M32.09 81.50L21.29 81.50Q20.39 81.50 19.71 80.83Q19.04 80.15 19.04 79.25L19.04 79.25L19.04 20.75Q19.04 19.76 19.71 19.13Q20.39 18.50 21.29 18.50L21.29 18.50L31.01 18.50Q32.54 18.50 33.26 19.27Q33.98 20.03 34.16 20.48L34.16 20.48L50 48.83L65.84 20.48Q66.11 20.03 66.78 19.27Q67.46 18.50 68.99 18.50L68.99 18.50L78.62 18.50Q79.61 18.50 80.28 19.13Q80.96 19.76 80.96 20.75L80.96 20.75L80.96 79.25Q80.96 80.15 80.28 80.83Q79.61 81.50 78.62 81.50L78.62 81.50L67.91 81.50Q66.92 81.50 66.24 80.83Q65.57 80.15 65.57 79.25L65.57 79.25L65.57 45.50L55.49 64.31Q55.04 65.12 54.32 65.75Q53.60 66.38 52.34 66.38L52.34 66.38L47.66 66.38Q46.40 66.38 45.68 65.75Q44.96 65.12 44.51 64.31L44.51 64.31L34.34 45.50L34.34 79.25Q34.34 80.15 33.71 80.83Q33.08 81.50 32.09 81.50L32.09 81.50Z"></path></svg>