<svg xmlns="http://www.w3.org/2000/svg" width="256" height="256" viewBox="0 0 100 100"><rect width="100" height="100" rx="20" fill="#546eff"></rect><path d="M28.53 81.50L24.13 81.50Q23.23 81.50 22.64 80.92Q22.05 80.33 22.05 79.43L22.05 79.43L22.05 20.66Q22.05 19.67 22.64 19.09Q23.23 18.50 24.13 18.50L24.13 18.50L28.63 18.50Q29.70 18.50 30.24 19.04Q30.78 19.58 30.96 19.94L30.96 19.94L49.95 56.30L69.13 19.94Q69.30 19.58 69.80 19.04Q70.30 18.50 71.38 18.50L71.38 18.50L75.78 18.50Q76.77 18.50 77.36 19.09Q77.94 19.67 77.94 20.66L77.94 20.66L77.94 79.43Q77.94 80.33 77.36 80.92Q76.77 81.50 75.78 81.50L75.78 81.50L71.38 81.50Q70.47 81.50 69.89 80.92Q69.30 80.33 69.30 79.43L69.30 79.43L69.30 35.15L54.27 64.49Q53.91 65.39 53.20 65.89Q52.48 66.38 51.40 66.38L51.40 66.38L48.60 66.38Q47.44 66.38 46.80 65.89Q46.17 65.39 45.73 64.49L45.73 64.49L30.60 35.15L30.60 79.43Q30.60 80.33 30.02 80.92Q29.43 81.50 28.53 81.50L28.53 81.50Z" fill="#fff"></path></svg>