<svg xmlns="http://www.w3.org/2000/svg" width="256" height="256" viewBox="0 0 100 100"><rect width="100" height="100" rx="20" fill="#3f51b5"></rect><path fill="#fff" d="M81.55 24.35L83.61 75.65L68.50 75.65L67.33 47.39Q67.06 39.02 66.70 34.70L66.70 34.70L66.43 34.70Q65.34 38.12 63.91 45.32L63.91 45.32L63.45 47.57L57.25 75.65L42.13 75.65L36.91 50.36L36.01 45.86Q34.12 37.49 33.40 34.70L33.40 34.70L33.13 34.70Q32.77 39.20 32.50 49.37L32.50 49.37Q32.41 50.00 32.41 51.35L32.41 51.35L31.60 75.65L16.39 75.65L18.55 24.35L44.29 24.35L48.70 46.49L49.77 52.43Q50.50 49.64 51.13 46.22L51.13 46.22L55.27 24.35L81.55 24.35Z"></path></svg>